<?xml version="1.0" encoding="UTF-8" standalone="no"?>
<!-- Created with Inkscape (http://www.inkscape.org/) -->

<svg
   width="16"
   height="16"
   viewBox="0 0 4.2333332 4.2333332"
   version="1.1"
   id="svg5"
   xmlns="http://www.w3.org/2000/svg"
   xmlns:svg="http://www.w3.org/2000/svg">
  <defs
     id="defs2" />
  <g
     id="layer3"
     style="display:inline">
    <path
       style="fill:#e3dedb;stroke:none;stroke-width:0.264583px;stroke-linecap:butt;stroke-linejoin:miter;stroke-opacity:1"
       d="m 3.7851048,4.2404064 -3.78109988,-0.00849 8.559e-4,-0.075948 c 0,0 0.27659808,-0.1270756 0.38880055,-0.165736 C 0.50586383,3.9515687 0.64897523,3.9033158 0.70384915,3.8725522 0.75872305,3.8417886 1.2779258,3.5167599 1.3003082,3.4186069 1.3226906,3.3204541 1.3623684,2.9284236 1.3378705,2.8569811 1.3133727,2.7855373 1.2541063,2.5874228 1.2358257,2.5587101 1.2175452,2.5299973 1.0569445,2.4991045 1.0569445,2.4991045 L 0.97884852,1.9255284 0.99822716,1.627743 1.3807458,0.80939827 1.8473355,0.48614602 l 0.7665391,3.5454e-4 0.1723088,0.29516932 0.3894463,0.78472272 0.09657,0.352837 -0.092808,0.6719228 0.043473,0.5625788 0.1293043,0.8839898 z"
       id="path5711" />
  </g>
  <g
     id="layer2">
    <path
       style="fill:#c8beb7;stroke:none;stroke-width:0.264583px;stroke-linecap:butt;stroke-linejoin:miter;stroke-opacity:1"
       d="m 2.2293172,3.4669984 c 0,0 0.1227998,-0.087835 0.1696176,-0.1202648 0.046818,-0.03243 0.1167477,-0.077204 0.1328599,-0.1073499 0.016112,-0.030146 0.065088,-0.1629262 0.06011,-0.112911 -0.00498,0.050015 -0.082422,0.186335 -0.039772,0.1406361 0.04265,-0.045698 0.1708623,-0.1731803 0.1708623,-0.1731803 0,0 -0.146243,0.1826924 -0.1963495,0.2293733 -0.050107,0.046681 -0.2973276,0.1436966 -0.2973283,0.1436966 z"
       id="path7185" />
    <path
       style="fill:#e9afaf;stroke:none;stroke-width:0.264583px;stroke-linecap:butt;stroke-linejoin:miter;stroke-opacity:1"
       d="m 1.6795958,2.6982036 c 0,0 0.0849,0.020704 0.1424633,0.025863 0.057563,0.00516 0.1742195,-0.00421 0.1999807,-0.00595 0.025761,-0.00175 0.065317,-0.017425 0.065317,-0.017425 0,0 0.020703,0.03589 0.038231,0.038585 0.017528,0.00269 0.085996,-0.034771 0.085996,-0.034771 0,0 0.057552,0.010975 0.1097479,0.00824 0.052196,-0.00273 0.096993,7.408e-4 0.1279954,-0.00483 0.031003,-0.00558 0.085528,-0.012676 0.085528,-0.012676 -0.03593,0.037141 -0.1334894,0.094246 -0.2160243,0.1222745 -0.051785,0.015649 -0.1986676,0.027285 -0.2660282,0.025915 -0.067361,-0.00137 -0.1477959,-0.02156 -0.205496,-0.046008 -0.0577,-0.024448 -0.1677107,-0.09922 -0.1677107,-0.09922 z"
       id="path6549" />
    <path
       style="fill:#c8beb7;stroke:none;stroke-width:0.264583px;stroke-linecap:butt;stroke-linejoin:miter;stroke-opacity:1"
       d="m 1.2279863,1.6412166 c 0,0 -0.041862,0.1331911 -0.041862,0.1498742 0,0.016683 -0.094298,-0.089776 -0.109234,-0.072533 -0.014936,0.017243 0.062507,0.032818 0.081954,0.083484 0.019447,0.050666 0.00239,0.08232 -4.922e-4,0.1209613 -0.00288,0.038642 -0.02567,0.1601627 -0.02567,0.1601627 l 0.068093,-0.043963 c 0,0 0.027109,0.2142316 0.032818,0.2624311 0.00571,0.0482 0.056558,0.3270512 0.056581,0.3693587 2.29e-5,0.042307 0.0338,0.1617498 0.065522,0.2153848 0.031722,0.053635 0.1286463,0.2289736 0.1597858,0.2629564 0.03114,0.033983 0.2571442,0.1990328 0.2867308,0.2152822 0.029587,0.016248 0.1191799,0.091078 0.1863693,0.099631 0.067189,0.00855 0.1690923,0.026606 0.1690923,0.026606 0,0 -0.1193398,-0.027166 -0.1695034,-0.057072 C 1.9380075,3.4038741 1.9424951,3.3887783 1.8333981,3.2911687 1.7243012,3.1935592 1.6000968,3.1134095 1.5403299,2.9950973 1.4805629,2.8767852 1.419026,2.8208094 1.4162511,2.7022573 1.4134764,2.5837055 1.4478817,2.4680768 1.3788197,2.40131 1.3097577,2.3345432 1.2586806,2.3826628 1.251932,2.2045609 1.2451833,2.0264589 1.2472844,1.9936179 1.2451833,1.8993885 1.2430822,1.805159 1.2279863,1.6412166 1.2279863,1.6412166 Z"
       id="path6302" />
    <path
       style="fill:#ac9d93;stroke:none;stroke-width:0.264583px;stroke-linecap:butt;stroke-linejoin:miter;stroke-opacity:1"
       d="m 3.4936498,4.102382 c 0,0 -0.3864107,-0.1631037 -0.4965782,-0.2257129 C 2.8869039,3.8140597 2.7888316,3.7483822 2.7545154,3.6754376 2.7201989,3.6024933 2.7090724,3.5407721 2.7149829,3.4033774 c 0.00591,-0.1373946 0.055503,-0.3603783 0.055503,-0.3603783 0,0 0.099332,-0.1825149 0.1168213,-0.2493389 0.017489,-0.066824 0.059412,-0.3065704 0.059412,-0.3065704 0,0 4.498e-4,0.032685 0.029003,0.035786 0.028551,0.0031 0.077498,-0.00785 0.1055653,-0.042665 0.028067,-0.034817 0.01841,-0.1216818 0.028939,-0.1619733 0.010528,-0.040291 0.00599,-0.1928661 0.025241,-0.233852 0.019249,-0.040986 0.073397,-0.096813 0.061543,-0.1763135 -0.011853,-0.079501 -0.022802,-0.1568703 -0.075609,-0.1486667 -0.052807,0.0082 -0.1415127,0.044426 -0.1415127,0.044426 0,0 -0.012547,-0.096118 -0.00259,-0.1456791 C 2.987245,1.6085904 2.9618106,1.3951829 2.9538149,1.3201875 2.945815,1.2451921 2.9237395,1.0530042 2.7789325,0.94104398 2.6341254,0.82908374 2.4498504,0.76025721 2.3706563,0.76025721 c -0.079194,0 -0.1832898,-0.009818 -0.1832898,-0.009818 0,0 -0.016117,-0.004279 -0.00409,-0.0603484 0.012031,-0.0560689 -0.036448,-0.0847655 -0.036448,-0.0847655 0,0 0.00541,0.0337189 0.00541,0.084927 0,0.0512081 0.023836,0.12899728 0.023836,0.12899728 0,0 -0.034429,0.0387735 -0.0416,0.0653869 -0.00717,0.0266133 -0.021575,-0.0373686 -0.090789,-0.084911 -0.069214,-0.0475423 -0.1862935,-0.0799531 -0.1862935,-0.0799531 0,0 -0.2484022,0.004005 -0.3108015,0.0729607 -0.062399,0.0689557 -0.15989,0.1657037 -0.1970002,0.24245941 -0.03711,0.076756 -0.090531,0.279408 -0.092339,0.3619449 -0.00181,0.082537 -0.049157,0.3940974 -0.049157,0.3940974 0,0 -0.061947,-0.05397 -0.1128969,-0.078177 -0.05095,-0.024207 -0.093066,0.016165 -0.091225,0.1368134 0.00184,0.1206483 0.03795,0.1453077 0.042035,0.2114696 0.00409,0.066162 -0.00912,0.1689012 0.00633,0.2358222 0.015455,0.066921 0.068633,0.1503946 0.101738,0.1586144 0.033105,0.00822 0.095133,-0.027986 0.095133,-0.027986 0,0 0.018458,0.093179 0.020121,0.131791 0.00166,0.038612 0.0156,0.184501 0.036852,0.2145217 0.021252,0.030021 0.031668,0.0785 0.031668,0.0785 0,0 0.026743,0.2196893 0.026936,0.266279 1.938e-4,0.046589 -0.034736,0.2677002 -0.07619,0.3167603 -0.041454,0.04906 -0.2587536,0.2312683 -0.34468183,0.2818143 -0.0859282,0.050546 -0.32835527,0.2048324 -0.41620521,0.2312519 -0.0878499,0.026419 -0.23541845,0.060139 -0.23541845,0.060139 0,0 0.0847171,-0.1154806 0.18028616,-0.1820948 0.0955691,-0.066614 0.18997549,-0.1468741 0.18952331,-0.1717111 -4.5243e-4,-0.024836 -0.22755394,0.142966 -0.22755394,0.142966 L 0.6791576,3.5793518 0.48822935,3.7155678 c 0,0 0.12533148,-0.1254123 0.14960327,-0.1444842 0.0242718,-0.019071 0.0206544,0.0067 0.004166,-0.1207291 -0.016488,-0.1274308 0.007332,-0.244171 0.003197,-0.3063928 -0.004134,-0.062222 -0.0485435,0.1430631 -0.0485435,0.1430631 0,0 0.033299,0.3518519 -0.006928,0.1977107 -0.0402269,-0.154141 -0.0471063,-0.2415873 -0.0360927,-0.3088312 0.0110135,-0.067244 0.0670825,-0.2067219 0.0670825,-0.2067219 0,0 -0.10601743,0.076094 -0.11015154,0.1106361 -0.004134,0.034542 -0.0229314,0.215765 -0.0229314,0.215765 0,0 -0.0829891,-0.1668017 0.0158419,-0.3468618 C 0.60230495,2.7686616 0.6232985,2.7151766 0.66410675,2.6089492 0.70491497,2.5027219 0.78481967,2.2260753 0.7544759,2.2866983 0.72413214,2.3473212 0.60543783,2.7202312 0.55318006,2.7862318 c -0.0522578,0.066 -0.0930983,0.1265425 -0.0930983,0.1265425 0,0 0.10414415,-0.1989219 0.12307064,-0.2654069 C 0.6020789,2.5808824 0.6427418,2.4476219 0.6548696,2.3953156 0.6669974,2.3430096 0.6624756,2.3193026 0.7121335,2.2396727 0.7617913,2.1600427 0.800371,2.1000656 0.81685902,2.0002978 0.83334705,1.90053 0.92003426,1.5654244 0.95262273,1.388578 0.98521117,1.2117316 1.0385671,1.0293622 1.0960894,0.94089862 1.1536117,0.85243505 1.2722415,0.68950895 1.3624007,0.61997184 1.4525599,0.55043474 1.4711796,0.46775245 1.5771324,0.41300773 1.6830852,0.358263 1.8831538,0.38678193 1.8831538,0.38678193 c 0,0 0.022511,-0.0700377 0.059492,-0.0758028 0.036981,-0.005765 0.2396657,-0.03514 0.3562606,0.0176668 0.116595,0.0528068 0.4917819,0.22954025 0.6032577,0.3668219 0.1114759,0.13728168 0.3974563,0.63555547 0.4392658,1.07998897 0.041809,0.4444335 0.014922,0.4623587 -0.018508,0.4983385 -0.033428,0.03598 0.014018,0.059428 0.056101,0.026452 0.042084,-0.032976 0.066695,-0.2006984 0.066695,-0.1096671 0,0.091031 -0.015663,0.1484083 -0.015663,0.1987766 0,0.050368 0.019653,0.00985 0.039904,-0.053049 0.020251,-0.0629 -0.019815,-0.026952 -0.019815,0.1304184 0,0.1573708 -0.037869,0.24795 0.00933,0.338093 0.047203,0.090143 0.041325,-0.00222 0.065322,0.1072287 0.023998,0.1094409 0.1048547,0.1315165 0.039678,0.194804 -0.065177,0.063287 -0.014242,-0.047736 -0.090644,-0.1285452 -0.076401,-0.080809 -0.1016251,-0.073817 -0.049771,0.00334 0.051854,0.077159 0.1284322,0.1437897 0.1292071,0.2019903 7.673e-4,0.0582 0.058411,0.088431 0.058411,0.088431 L 3.5788679,3.174175 c 0,0 -0.09565,-0.1410282 -0.1437897,-0.1903791 -0.04814,-0.049351 0.016536,0.033654 0.052032,0.114237 0.035495,0.080583 0.092598,0.3580694 0.092598,0.3580694 0,0 -0.00799,-0.054841 -0.017862,-0.1605362 -0.00987,-0.1056944 -0.032944,-0.056198 -0.03409,0.051903 -0.00114,0.1081008 -0.081213,0.2513576 -0.089481,0.3862168 -0.00827,0.1348594 -0.049093,0.2666505 -0.023125,0.2807322 0.025966,0.014081 0.0785,0.087963 0.0785,0.087964 z"
       id="path5530" />
    <path
       style="fill:#6c5d53;stroke:none;stroke-width:0.264583px;stroke-linecap:butt;stroke-linejoin:miter;stroke-opacity:1"
       d="m 3.1168961,2.3121973 c 0,0 0.1307576,-0.00493 0.1307576,-0.073187 0,-0.068261 -0.016245,-0.015309 -0.00807,-0.1556591 0.00817,-0.14035 -0.030295,-0.1132845 -0.014163,-0.2185429 0.016132,-0.1052584 0.012208,-0.1069379 0.016132,-0.1925108 0.00392,-0.085573 0.061818,-0.06944 -1.453e-4,-0.2066734 C 3.179441,1.3283911 3.1614348,1.1798537 3.1172515,1.108621 3.0730682,1.0373882 2.9912902,0.92573482 2.9293753,0.87278264 2.8674605,0.81983045 2.7934179,0.77194899 2.7934179,0.77194899 c 0,0 0.2405216,0.18233707 0.2734006,0.28326761 0.032879,0.1009305 0.1109752,0.2614343 0.1109752,0.3210398 0,0.059606 -0.00281,0.082747 -0.00281,0.1629584 0,0.080211 0.00193,0.1381214 0,0.1909929 -0.00193,0.052871 0.010999,0.1199862 0.010999,0.1199862 0,0 0.00745,0.078936 -7.143e-4,0.11779 -0.00817,0.038854 -0.043828,0.081213 -0.036077,0.1165142 0.00775,0.035301 0.021318,0.062916 0.00328,0.1067925 -0.018039,0.043877 -0.03556,0.1209067 -0.03556,0.1209067 z"
       id="path5281" />
    <path
       style="fill:#6c5d53;stroke:none;stroke-width:0.264583px;stroke-linecap:butt;stroke-linejoin:miter;stroke-opacity:1"
       d="m 2.8157196,3.753114 c 0,0 -0.045072,-0.070393 -0.015663,-0.1256707 0.029407,-0.055278 0.057587,-0.075367 0.068213,-0.1524778 0.010626,-0.077111 0.043392,-0.1142696 0.043973,0.013967 5.821e-4,0.1282386 0.012113,0.20128 -0.024077,0.2479339 -0.03619,0.046654 -0.030409,0.058766 -0.030409,0.058766 l 0.3534346,0.175264 c 0,0 -0.015875,0.075028 -0.00156,-0.066889 0.014309,-0.1419164 0.047349,-0.2009404 0.0572,-0.252068 0.00985,-0.051127 -0.074689,0.058152 -0.080518,0.08026 -0.00583,0.022108 -0.015293,0.016682 -0.018039,0.078031 -0.00275,0.061349 -0.014888,0.1323239 -0.013306,0.061349 0.00159,-0.070974 -0.00911,-0.1078582 -0.00911,-0.1078582 0,0 -0.049803,0.00379 -0.042843,0.047994 0.00696,0.044199 -0.037207,0.080163 -0.037207,0.080163 0,0 -0.022527,0.00381 -6.879e-4,-0.030764 0.021833,-0.034575 -0.029165,-0.026437 -0.029165,-0.026437 0,0 -0.056602,0.058104 0.048027,-0.047155 C 3.188612,3.682266 3.216598,3.7078782 3.225819,3.6373075 3.2350397,3.566737 3.2860382,3.4757542 3.2350397,3.534633 3.1840416,3.5935118 3.1138585,3.651341 3.1138585,3.651341"
       id="path5009" />
    <path
       style="fill:#6c5d53;stroke:none;stroke-width:0.264583px;stroke-linecap:butt;stroke-linejoin:miter;stroke-opacity:1"
       d="m 3.1425245,2.7857635 c 0,0 -0.027388,0.031474 -7.409e-4,0.087333 0.026646,0.055859 0.1015442,0.1677384 0.1460667,0.2479014 0.044522,0.080163 0.08898,0.2945236 0.058798,0.3655462 -0.030182,0.071023 -0.073591,0.2282806 -0.06676,0.3036152 0.00683,0.075335 0.029407,0.2268918 0.029407,0.2268918 l 0.031474,0.02327 c 0,0 -0.048043,-0.081132 -0.024238,-0.1910574 0.023804,-0.1099254 0.045604,-0.2195764 0.064563,-0.2549263 0.018957,-0.03535 -0.010999,0.056828 -0.012129,0.1545931 -0.00114,0.097765 -0.020542,0.1509437 -0.0031,0.1962092 0.017441,0.045265 0.031587,0.092565 0.031587,0.092565 0,0 -0.019846,-0.068907 -0.01946,-0.1448554 3.969e-4,-0.075948 0.02973,-0.1732775 0.065387,-0.2809099 C 3.4790364,3.5043075 3.5207974,3.3256362 3.4952659,3.2229615 3.4697336,3.120287 3.4259387,3.0614728 3.3268168,2.9445709 3.2276952,2.8276693 3.1425258,2.785763 3.1425258,2.785763 Z"
       id="path5145" />
    <path
       style="fill:#6c5d53;stroke:none;stroke-width:0.264583px;stroke-linecap:butt;stroke-linejoin:miter;stroke-opacity:1"
       d="m 3.0330351,3.6938312 c 0.059638,-0.1959343 0.069408,-0.283542 0.071669,-0.3555661 0.00225,-0.072024 0.00644,-0.027599 -0.018362,-0.1729544 -0.024805,-0.1453563 0.010028,-0.1147218 -0.041148,-0.1906376 -0.051176,-0.075916 -0.059169,-0.0046 -0.051176,-0.075916 0.00799,-0.071314 0.018087,-0.022852 0.050627,-0.114528 0.03254,-0.091677 0.043037,-0.016796 0.035512,-0.1254123 -0.00752,-0.1086173 0.00354,-0.09326 -0.00953,-0.1301599 -0.013065,-0.0369 -0.013065,-0.0369 -0.013065,-0.0369 l -0.067228,0.039339 -0.04336,-0.02579 -0.018733,0.052532 -0.03191,0.2064958 -0.069569,0.1699348 -0.069731,0.1242332 -0.026064,0.2005047 -0.0146,0.1810935 -7.408e-4,0.1626838 0.08026,0.1272694 c 0,0 0.073606,-0.054664 0.069828,-0.1350531 -0.00378,-0.080389 -0.0447,-0.079081 -0.00378,-0.1945616 0.040921,-0.1154809 0.078145,-0.06873 0.081907,-0.1932216 0.00376,-0.1244917 0.00963,-0.2333836 0.00963,-0.2333836 0,0 0.013533,0.073914 0.013533,0.1656715 0,0.091758 0.03535,0.1269947 -0.00383,0.1859867 -0.039177,0.058992 -0.028115,0.181465 -0.028115,0.2163628 0,0.034898 0.024757,0.1938028 0.024757,0.1938028 z"
       id="path5077" />
    <path
       style="fill:#6c5d53;stroke:none;stroke-width:0.264583px;stroke-linecap:butt;stroke-linejoin:miter;stroke-opacity:1"
       d="m 2.339602,0.7558647 c 0,0 0.079905,-0.0399362 0.1371202,-0.0277922 0.057215,0.0121439 0.150992,0.0376431 0.1754577,0.0446194 0.024466,0.006976 0.1145439,0.0298754 0.1145439,0.0298754 L 2.5312085,0.7932813 2.6421675,0.83501 2.7726343,0.8719425 c 0,0 0.049028,0.0687296 0.1006883,0.11795146 0.05166,0.0492219 0.1305152,0.11527074 0.042149,0.0657099 -0.088367,-0.049561 -0.1867133,-0.16336221 -0.1684813,-0.14170654 0.018232,0.0216556 0.024289,0.0317164 0.024289,0.0317164 0,0 -0.00649,-0.004829 0.051402,0.0722986 0.057894,0.077127 0.074139,0.092695 0.129821,0.1498939 0.055681,0.057199 0.033541,0.028067 0.086833,0.084911 0.053291,0.056844 0.090853,0.016843 0.08223,0.1188073 -0.00862,0.1019641 -0.012499,0.044426 -0.00449,0.1405437 0.00801,0.096118 0.04969,0.061576 0.00801,0.1071317 -0.04168,0.045556 -0.045846,0.028293 -0.041729,0.077692 0.00412,0.0494 0.00814,0.071637 0.00814,0.071637 l -0.07703,0.074915 c 0,0 -0.052581,0.032298 -0.039694,-0.030618 0.012888,-0.062916 0.01384,-0.1641373 0.01384,-0.1641373 0,0 0.00394,0.025128 0.00122,-0.054567 -0.00273,-0.079695 0.00212,-0.084604 0.017926,-0.057425 0.015809,0.027179 0.080761,0.106728 0.080761,0.106728 0,0 0.046218,-0.00334 -0.032847,-0.088593 -0.079065,-0.08525 -0.087672,-0.066017 -0.080147,-0.1167565 0.00752,-0.05074 0.00323,-0.1285289 0.031878,-0.071491 0.028648,0.057038 0.078274,0.1223117 0.024821,0.01321 C 2.9787588,1.2706912 2.908931,1.1719246 2.9737203,1.231514 3.0385096,1.2911033 3.1415394,1.4128175 3.0467294,1.295076 2.9519192,1.1773345 2.8943001,1.1144991 2.8390871,1.0339969 2.7838741,0.95349477 2.7634779,0.9297559 2.6870937,0.87266959 2.6107095,0.81558327 2.6069468,0.80045178 2.5466791,0.78863081 2.4864115,0.7768098 2.4704564,0.74649834 2.43115,0.7485654 2.391844,0.7506324 2.339602,0.7558644 2.339602,0.7558647 Z"
       id="path4840" />
    <path
       style="fill:#6c5d53;stroke:none;stroke-width:0.264583px;stroke-linecap:butt;stroke-linejoin:miter;stroke-opacity:1"
       d="m 1.2529435,1.593249 c 0,0 -0.013178,0.076077 -0.02889,0.1240719 -0.015713,0.047994 -0.019831,0.099913 -0.041632,0.063836 -0.021801,-0.036077 -0.05447,-0.028325 -0.058556,-0.059121 -0.00409,-0.030796 0.019637,-0.036416 0.015503,-0.074188 -0.00413,-0.037772 -0.028438,-0.06621 -0.028438,-0.06621 0,0 -0.032136,-0.00896 9.367e-4,-0.075383 0.033073,-0.06642 -0.044797,0.016181 -0.024546,-0.05988 0.020251,-0.076061 -0.071427,0.00644 -0.026145,-0.068665 0.045281,-0.075108 0.034801,-0.240683 0.1114435,-0.3212175 0.076643,-0.0805344 0.094083,-0.10895648 0.1465995,-0.1760228 0.052516,-0.0670663 0.028793,-0.11649805 0.08441,-0.14438717 0.055617,-0.0278891 0.062302,-0.0359636 0.121052,-0.0646601 0.05875,-0.0286966 0.028212,-0.0376269 0.098395,-0.0403722 0.070183,-0.002745 0.09129,-0.0228668 0.1267041,-0.002745 0.035415,0.0201215 0.1209875,0.0771432 0.022786,0.0779507 -0.098201,8.0745e-4 -0.037482,0.0533236 -0.1345364,0.0181513 -0.097055,-0.0351723 -0.2331091,-0.0205091 -0.1667211,-0.00499 0.066388,0.0155191 0.1424009,0.0312319 0.1424009,0.0312319 0,0 0.03514,0.0268233 -0.069489,0.0292456 -0.1046287,0.002424 -0.1614404,0.0308767 -0.1614404,0.0308767 0,0 -0.1504915,0.10947328 -0.064838,0.0811966 0.085654,-0.0282767 0.2050262,-0.0956498 0.2050262,-0.0956498 0,0 -0.051886,0.0642887 -0.1124123,0.10824596 -0.060526,0.0439573 -0.072993,0.0894648 -0.1320333,0.15186411 -0.05904,0.062399 -0.2394072,0.2837521 -0.1034175,0.1533499 0.1359898,-0.1304023 -0.00199,0.081374 0.076998,-0.015115 0.078984,-0.09649 0.039242,-0.083231 -0.00606,0.022237 -0.045298,0.1054684 -0.097394,0.087511 -0.094649,0.1616665 0.00275,0.074156 -0.069763,0.2214012 0.020961,0.045911 0.090724,-0.17549 0.1412704,-0.3454085 0.095795,-0.1894749 -0.045475,0.1559337 -0.1114919,0.3249963 -0.066533,0.2368719 0.044959,-0.088124 0.094519,-0.1785744 0.041131,-0.055229 -0.053388,0.1233452 -0.1369103,0.2590765 -0.055374,0.150556 0.081536,-0.1085205 0.1390903,-0.1688204 0.077935,-0.057651 -0.061156,0.1111689 -0.01237,0.0837 -0.01237,0.0837 z"
       id="path4704" />
    <path
       style="fill:#6c5d53;stroke:none;stroke-width:0.264583px;stroke-linecap:butt;stroke-linejoin:miter;stroke-opacity:1"
       d="m 0.6616198,3.8878764 c 0,0 0.0671471,-0.063449 0.10281997,-0.1399625 0.0356729,-0.076513 0.0884152,-0.2688627 0.10177025,-0.2020872 0.0133551,0.066776 0.0392095,0.2874502 0.0340257,0.00891 -0.005184,-0.2785361 -0.005394,-0.3873473 0.0152768,-0.3294697 0.0206706,0.057878 0.0395002,0.2658914 0.0436343,0.085202 0.004134,-0.1806897 -0.00935,-0.091483 0.0192818,-0.2354024 0.028632,-0.1439188 0.0623993,-0.3360743 0.0655806,-0.1971778 0.00318,0.1388967 0.019718,0.088415 0.019718,0.2902117 0,0.2017963 -0.01715,0.1816912 -0.048221,0.2496454 -0.0310705,0.067955 -0.18438801,0.2670543 -0.0499486,0.098993 C 1.0999971,3.3486775 1.13307,3.4293089 1.13307,3.2790111 c 0,-0.1502976 -0.00413,-0.2087888 -0.00413,-0.3073456 0,-0.098556 0.01975,-0.379644 0.00321,-0.2504368 C 1.115614,2.8504358 1.070187,2.7702247 1.074321,2.9851984 1.078451,3.2001724 1.028038,3.4806945 1.078451,3.2991326 1.128868,3.1175708 1.12454,3.1386451 1.14521,3.0108752 1.165881,2.8831053 1.163927,2.5153466 1.165881,2.8063494 c 0.00196,0.291003 0.00557,0.3338943 -0.00218,0.4321119 -0.00775,0.098218 -0.016617,0.3308421 0.00405,0.054244 0.020671,-0.2765981 0.037207,-0.1826276 0.037159,-0.353709 -4.85e-5,-0.1710812 -4.85e-5,-0.09959 -4.85e-5,-0.2442033 0,-0.1446134 -0.0053,-0.2444458 -0.0053,-0.2444458 l 0.048479,-0.012612 c 0,0 0.00128,0.083344 0.018474,0.1622478 0.017198,0.078904 0.046735,0.2030722 0.056279,0.2228061 0.00954,0.019735 0.021914,0.070167 0.021914,0.070167 0,0 0.018733,0.1790105 0.014599,0.2349987 -0.00413,0.055988 -0.026016,0.2395201 -0.051483,0.2766142 C 1.2823565,3.441663 1.0698212,3.6415216 1.0371036,3.662515 1.0043856,3.68351 0.66160966,3.8878728 0.66160958,3.8878728 Z"
       id="path4941" />
    <path
       style="fill:#6c5d53;stroke:none;stroke-width:0.264583px;stroke-linecap:butt;stroke-linejoin:miter;stroke-opacity:1"
       d="m 1.1406119,2.4363015 c 0,0 -0.0067,-0.033864 -0.084556,0.091532 C 0.9782022,2.6532296 0.89513229,2.8089855 0.8683736,2.9242886 0.8416149,3.0395916 0.8883175,2.7074898 0.9451777,2.6226436 1.0020379,2.5377976 1.0449455,2.4717 1.0449455,2.4717 c 0,0 -0.12712403,0.052129 -0.15528768,0.1343587 -0.0281637,0.08223 -0.12287686,0.3666605 -0.12287686,0.3666605 0,0 0.0203314,-0.1189043 0.044038,-0.2279578 C 0.83452566,2.635708 0.80576396,2.5881334 0.87512376,2.5044822 0.94448367,2.4208309 1.018058,2.3565906 1.018058,2.3565906 c 0,0 -0.12282842,0.083102 -0.171049,0.1343426 -0.0482206,0.05124 0.0598316,-0.1569187 0.10718017,-0.1923655 0.0473485,-0.035447 -0.10356281,0.074915 -0.10356281,0.074915 l 0.0574254,-0.1221018 -0.0778215,-0.034995 0.18064144,0.015874 0.031474,0.030392 0.041147,0.1314357 c 0,0 -0.011014,0.034219 0.021058,0.041939 0.032072,0.00772 0.03606,2.751e-4 0.03606,2.751e-4 z"
       id="path5349" />
    <path
       style="fill:#2c89a0;stroke:none;stroke-width:0.264583px;stroke-linecap:butt;stroke-linejoin:miter;stroke-opacity:1"
       d="m 2.4433021,1.8530522 c 0,0 -0.00436,0.0026 -0.00423,0.024058 8.33e-5,0.013634 0.00496,0.022225 0.013512,0.034159 0,0 0.033182,0.00988 0.062476,0.00788 0.029294,-0.00199 0.054733,-0.00393 0.054733,-0.00393 0,0 0.014388,-0.0084 0.017279,-0.022023 0.00292,-0.017832 0.00417,-0.030788 -0.00114,-0.043307 0,0 -0.025317,-0.011393 -0.059206,-0.01046 -0.033888,9.313e-4 -0.083421,0.013621 -0.083421,0.013621 z"
       id="path780" />
    <path
       style="fill:#2c89a0;stroke:none;stroke-width:0.264583px;stroke-linecap:butt;stroke-linejoin:miter;stroke-opacity:1"
       d="m 1.6520915,1.8308395 c -5.125e-4,0.00288 -0.00981,0.015721 -0.00762,0.033211 0.00204,0.016284 0.00455,0.026193 0.00455,0.026193 0,0 0.021441,0.00637 0.036254,0.0082 0.014813,0.00183 0.065867,0.00437 0.076041,0.00334 0.010174,-0.00103 0.016032,-0.00302 0.016032,-0.00302 0,0 0.00853,-0.00205 0.011712,-0.017861 0.00617,-0.015127 0.00574,-0.038533 0.00388,-0.038963 0,0 -0.039411,-0.018272 -0.054175,-0.018272 -0.014764,0 -0.052302,-0.00235 -0.061011,3.916e-4 -0.00871,0.00274 -0.025657,0.00678 -0.025657,0.00678 z"
       id="path914" />
    <path
       style="fill:#000000;stroke:none;stroke-width:0.264583px;stroke-linecap:butt;stroke-linejoin:miter;stroke-opacity:1"
       d="M 1.8361686,1.886864 C 1.8137906,1.856435 1.7912746,1.844457 1.7710076,1.834913 1.7507406,1.825373 1.6990196,1.820601 1.6727096,1.829423 c -0.026311,0.00882 -0.057773,0.014619 -0.069057,0.022992 -0.011284,0.00837 -0.018333,0.01644 -0.018333,0.01644 0,0 0.038289,0.00802 0.050013,0.013 0.011724,0.00498 0.048923,0.018063 0.066029,0.018773 0.017106,7.117e-4 0.060025,-0.00244 0.072012,-0.00191 0.011986,5.371e-4 0.037994,6.217e-4 0.046682,0.00229 0.00869,0.00167 -8.599e-4,0.00201 -0.027602,9.763e-4 -0.026743,-0.00104 -0.074345,0.00354 -0.094087,0.00155 -0.019742,-0.00199 -0.05315,-0.014163 -0.066978,-0.019568 -0.013827,-0.00541 -0.048321,-0.00999 -0.048321,-0.00999 0,0 -0.00581,0.00504 -0.00235,0.00981 0.00346,0.00476 8.281e-4,0.010973 -0.00446,0.0099 -0.00529,-0.00107 -0.00317,-0.00784 -0.016476,-0.00665 -0.013311,0.00119 -0.023626,0.00424 -0.038386,0.00321 -0.01476,-0.00102 -0.027445,-0.00484 -0.027445,-0.00484 0,0 0.020824,5.53e-4 0.032132,-0.00319 0.011308,-0.00374 0.03164,-0.0086 0.03164,-0.0086 0,0 -0.0013,-0.00177 -0.00271,-0.012261 -0.00142,-0.010493 0.00572,-0.036404 0.00572,-0.036404 0,0 -0.00233,0.00983 -5.847e-4,0.027905 0.00174,0.01807 0.00984,0.012217 0.00984,0.012217 l 0.00983,-0.011017 c 0,0 0.00108,-0.00269 -0.00278,-0.00715 -0.00387,-0.00446 -0.00423,-0.024518 -0.00423,-0.024518 0,0 -0.00302,0.00881 0.00569,0.019181 0.0087,0.010368 0.00742,0.00829 0.00742,0.00829 0,0 0.00565,-0.00448 0.013827,-0.00914 0.00818,-0.00467 0.028587,-0.00805 0.041906,-0.012653 0.013319,-0.0046 0.046077,-0.01105 0.084366,-0.00958 0.038289,0.00147 0.078984,0.029016 0.089562,0.036557 0.010578,0.00754 0.024994,0.011962 0.032366,0.017687 0.00737,0.00572 0.014582,0.016379 0.023856,0.018373 0.00927,0.00199 0.020138,0.011801 0.023876,0.020533 0.00374,0.00873 7.302e-4,0.015148 -0.011648,0.011316 -0.012378,-0.00383 -0.0088,-0.015483 -0.022713,-0.014829 -0.013912,6.535e-4 -0.03967,0.00593 -0.025455,-2.14e-4 0.014215,-0.00614 0.017114,-0.011587 0.010808,-0.013065 -0.00631,-0.00148 -0.010497,-0.00799 -0.010497,-0.00799 z"
       id="path55" />
    <path
       style="fill:#000000;stroke:none;stroke-width:0.264583px;stroke-linecap:butt;stroke-linejoin:miter;stroke-opacity:1"
       d="m 1.4534602,1.8539041 c 0,0 0.00549,-0.00199 0.016585,-0.00732 0.011094,-0.00533 0.02103,-0.030106 0.036145,-0.042847 0.015115,-0.012741 0.042968,-0.034397 0.055907,-0.038519 0.012939,-0.00412 0.025866,-0.00729 0.036496,-0.01212 0.01063,-0.00483 0.05076,-0.012826 0.05076,-0.012826 0,0 -0.020989,-0.00209 -0.035733,0.00357 -0.014744,0.00566 -0.008,0.007 -0.030784,0.012548 -0.022782,0.00555 -0.0369,0.015475 -0.059464,0.029843 -0.022564,0.014369 -0.034534,0.029072 -0.041272,0.035592 -0.00674,0.00652 -0.017372,0.015293 -0.017372,0.015293 0,0 0.00459,-0.00247 -0.00952,-0.00856 -0.01411,-0.00609 -0.031337,-0.011522 -0.031337,-0.011522 0,0 0.022544,0.0087 0.027352,0.012875 0.00481,0.00418 0.012422,0.014038 0.012422,0.014038 z"
       id="path123" />
    <path
       style="fill:#000000;stroke:none;stroke-width:0.264583px;stroke-linecap:butt;stroke-linejoin:miter;stroke-opacity:1"
       d="m 1.4997187,1.8371739 c 0,0 0.024458,-0.040808 0.09095,-0.058314 0.066493,-0.017505 0.111391,-0.023355 0.1420981,-0.01453 0.030707,0.00883 0.067159,0.021135 0.078871,0.034223 0.011712,0.013089 0.03191,0.02772 0.045096,0.034179 0.013186,0.00646 0.05726,0.032726 0.05726,0.032726 0,0 -0.04617,-0.030263 -0.064232,-0.043509 -0.018063,-0.013246 -0.027659,-0.029145 -0.027659,-0.029145 l 0.01015,0.01893 c 0,0 -0.019286,-0.020384 -0.031301,-0.025128 -0.012015,-0.00474 -0.055726,-0.030105 -0.088524,-0.029124 -0.032798,9.81e-4 -0.071588,-0.00767 -0.1028442,0.00464 -0.031256,0.012306 -0.057147,0.026533 -0.07263,0.03711 -0.015483,0.010578 -0.037235,0.037942 -0.037235,0.037942 z"
       id="path191" />
    <path
       style="fill:#000000;stroke:none;stroke-width:0.264583px;stroke-linecap:butt;stroke-linejoin:miter;stroke-opacity:1"
       d="m 1.5105546,1.9502443 c 0,0 0.059694,0.02323 0.082307,0.032778 0.022612,0.00955 0.068233,0.015766 0.09594,0.015766 0.027707,0 0.072198,-0.00499 0.081814,-0.010751 0.00962,-0.00576 0.023921,-0.012293 0.023921,-0.012293 0,0 -0.017534,0.011591 -0.05009,0.014449 -0.032556,0.00286 -0.069686,0.00183 -0.092101,7.911e-4 -0.022415,-0.00103 -0.029076,-0.00648 -0.052573,-0.012523 -0.023496,-0.00605 -0.051571,-0.022733 -0.066465,-0.023719 -0.014893,-9.842e-4 -0.022754,-0.0045 -0.022754,-0.0045 z"
       id="path259" />
    <path
       style="fill:#000000;stroke:none;stroke-width:0.264583px;stroke-linecap:butt;stroke-linejoin:miter;stroke-opacity:1"
       d="m 2.324854,1.8859556 c 0,0 0.010376,-0.00544 0.022625,-0.014954 0.012249,-0.00952 0.024692,-0.020089 0.024692,-0.020089 0,0 -0.013573,0.00648 -0.023993,0.016431 -0.01042,0.00996 -0.023323,0.018612 -0.023323,0.018612 z"
       id="path327" />
    <path
       style="fill:#000000;stroke:none;stroke-width:0.264583px;stroke-linecap:butt;stroke-linejoin:miter;stroke-opacity:1"
       d="m 2.3673538,1.8700247 c 0,0 0.024078,-0.026093 0.041959,-0.040283 0.017881,-0.014191 0.022568,-0.024667 0.050655,-0.033933 0.028087,-0.00927 0.091996,-0.017618 0.1168412,-0.011466 0.024845,0.00615 0.061434,0.00942 0.087935,0.028333 0.0265,0.01891 0.051297,0.049319 0.066566,0.066009 0.015269,0.01669 0.043978,0.041761 0.05118,0.043477 0.0072,0.00171 0.020796,0.00381 0.020796,0.00381 L 2.76706,1.9077957 2.75832,1.8973397 2.784178,1.8973275 2.755344,1.8950975 c 0,0 -0.021159,-0.011817 -0.023024,-0.020961 C 2.73044,1.8649965 2.72825,1.8605225 2.712024,1.8459895 2.695803,1.8314565 2.673914,1.8068615 2.647098,1.7944595 2.620283,1.7820575 2.539187,1.7789205 2.5303132,1.7799535 c -0.00887,0.00103 -0.05707,0.00468 -0.072735,0.012132 -0.015664,0.00745 -0.029072,0.00814 -0.044688,0.026452 -0.015616,0.018313 -0.045532,0.051483 -0.045532,0.051483 z"
       id="path395" />
    <path
       style="fill:#000000;stroke:none;stroke-width:0.264583px;stroke-linecap:butt;stroke-linejoin:miter;stroke-opacity:1"
       d="m 2.3872977,1.966369 c 0,0 0.089723,0.040796 0.1197925,0.047982 0.030069,0.00719 0.062323,0.018002 0.086578,0.018002 0.024256,0 0.0586,-8.361e-4 0.0586,-8.361e-4 0,0 -0.052775,0.00146 -0.086122,-0.00567 -0.033347,-0.00713 -0.061648,-0.013246 -0.094754,-0.028745 -0.033105,-0.015499 -0.084095,-0.030735 -0.084095,-0.030735 z"
       id="path463" />
    <path
       style="fill:#000000;stroke:none;stroke-width:0.264583px;stroke-linecap:butt;stroke-linejoin:miter;stroke-opacity:1"
       d="m 2.5517782,2.0077464 c 0,0 0.035931,0.011635 0.066824,0.011559 0.030893,-7.67e-5 0.059573,-0.0072 0.059573,-0.0072 0,0 -0.043186,0.0063 -0.072404,0.00517 -0.029217,-0.00114 -0.053994,-0.00953 -0.053994,-0.00953 z"
       id="path531" />
    <path
       style="fill:#000000;stroke:none;stroke-width:0.264583px;stroke-linecap:butt;stroke-linejoin:miter;stroke-opacity:1"
       d="m 2.4207501,1.9165416 c 0,0 -0.025584,-0.0066 -0.039278,-0.00392 -0.013694,0.00267 -0.024809,0.014336 -0.029363,0.00267 -0.00455,-0.011664 -5.006e-4,-0.00868 0.00984,-0.019916 0.010339,-0.011231 0.051261,-0.037134 0.078581,-0.046408 0.02732,-0.00927 0.081838,-0.016654 0.081838,-0.016654 l 0.031252,-0.022209 -0.023117,0.020582 c 0,0 0.015463,0.00267 0.024437,0.0028 0.00897,1.291e-4 0.011413,9.974e-4 0.011413,9.974e-4 0,0 0.00741,-0.0015 0.012871,-0.00761 0.00546,-0.00612 0.011187,-0.019197 0.011187,-0.019197 0,0 -0.00121,0.012007 -0.00545,0.019475 -0.00424,0.00747 -0.011607,0.0085 -0.011607,0.0085 l 0.024914,0.0096 c 0,0 0.00799,-7.832e-4 0.013827,-0.0099 0.00584,-0.00912 0.0093,-0.020497 0.0093,-0.020497 0,0 -0.00264,0.013331 -0.00893,0.022952 -0.00629,0.00962 -0.011244,0.010234 -0.011244,0.010234 0,0 0.012023,0.00117 0.018781,0.00619 0.00676,0.00502 0.01321,0.012205 0.01321,0.012205 0,0 0.019108,-0.00166 0.024256,-0.00484 0.00515,-0.00317 0.021442,-0.01342 0.021442,-0.01342 0,0 -0.00802,0.010497 -0.018934,0.015079 -0.010909,0.00458 -0.022395,0.00562 -0.022395,0.00562 l 0.019322,0.016742 c 0,0 0.00702,0.00153 0.017449,-0.00372 0.010427,-0.00525 0.018441,-0.010674 0.018441,-0.010674 0,0 -0.00351,0.0061 -0.014113,0.011914 -0.010602,0.00582 -0.017566,0.00847 -0.017566,0.00847 0,0 0.00792,0.01038 0.016838,0.012071 0.00892,0.00169 -0.00664,-0.018894 0.00741,-0.00852 0.014055,0.010376 0.012293,0.017239 0.023881,0.021272 0.011586,0.00403 0.0263,0.00818 0.0263,0.00818 0,0 -0.035798,-0.00387 -0.04007,-0.00683 -0.00427,-0.00296 -0.015968,-0.00747 -0.015968,-0.00747 l 0.013647,0.016815 c 0,0 -0.017836,-0.02019 -0.024934,-0.021793 -0.0071,-0.0016 -0.016621,-0.00665 -0.016621,-0.00665 0,0 -0.011983,9.28e-5 -4.763e-4,0.011566 0.011499,0.011474 0.016521,0.02015 0.016521,0.02015 0,0 -0.036355,-0.023997 -0.027699,-0.022261 0.00866,0.00174 -0.022499,-0.011801 -0.014401,-0.00234 0.0081,0.00946 0.02124,0.021212 0.02124,0.021212 0,0 -0.014704,-0.00936 -0.021163,-0.011401 -0.00646,-0.00204 -0.023262,-0.0044 -0.030727,-3.836e-4 -0.00746,0.00402 -0.045007,0.00975 -0.045007,0.00975 0,0 0.034781,-0.00598 0.054188,-0.010577 0.019407,-0.0046 0.017279,-0.016185 0.027175,-0.017542 0.0099,-0.00136 0.027211,0.00102 0.018018,-0.00594 -0.00919,-0.00696 -0.036081,-0.028523 -0.059941,-0.037817 -0.02386,-0.00929 -0.070522,-0.014946 -0.1006398,-0.00788 -0.030118,0.00706 -0.063029,0.010032 -0.071661,0.024966 -0.00863,0.014934 -0.00803,0.028725 -0.019161,0.025354 -0.011135,-0.00337 -0.033804,-0.013424 -0.025988,-0.00339 0.00782,0.010037 0.00813,0.015128 0.020917,0.013294 0.012786,-0.00183 0.027962,0.011123 0.027962,0.011123 z"
       id="path712" />
    <ellipse
       style="fill:#000000;stroke:none;stroke-width:0.51122"
       id="path1150"
       cx="1.716796"
       cy="1.8504623"
       rx="0.028050613"
       ry="0.027099848" />
    <ellipse
       style="fill:#000000;stroke:none;stroke-width:0.51122"
       id="ellipse1254"
       cx="2.5137475"
       cy="1.8666919"
       rx="0.028050613"
       ry="0.027099848" />
    <path
       style="fill:#000000;stroke:none;stroke-width:0.264583px;stroke-linecap:butt;stroke-linejoin:miter;stroke-opacity:1"
       d="m 2.0244404,2.4542752 c 0,0 0.033678,0.010561 0.049892,0.010045 0.016213,-5.16e-4 0.048745,8.07e-5 0.016762,-0.019355 -0.031983,-0.019435 -0.079969,-0.039007 -0.1099414,-0.027526 -0.029972,0.011482 -0.095674,0.027453 -0.052411,0.040114 0.043263,0.012661 0.095698,-0.00328 0.095698,-0.00328 z"
       id="path2065" />
    <path
       style="fill:#000000;stroke:none;stroke-width:0.264583px;stroke-linecap:butt;stroke-linejoin:miter;stroke-opacity:1"
       d="m 2.2445174,2.4701738 c 0,0 0.00925,-0.01841 0.019911,-0.028462 0.010666,-0.010053 0.010965,-0.033775 0.023569,-0.031733 0.012604,0.00204 0.02881,0.00383 0.037046,0.016383 0.00824,0.012556 0.017045,0.015584 -0.00499,0.023618 -0.022035,0.00803 -0.00275,0.020792 -0.00275,0.020792 0,0 -0.020921,0.010085 -0.029843,-7.911e-4 -0.00892,-0.010876 -0.04294,1.938e-4 -0.04294,1.938e-4 z"
       id="path2133" />
    <path
       style="fill:#000000;stroke:none;stroke-width:0.264583px;stroke-linecap:butt;stroke-linejoin:miter;stroke-opacity:1"
       d="m 2.0142988,2.4896978 c 0,0 0.033864,-9.366e-4 0.064991,0.00993 0.031127,0.010868 0.047631,0.023012 0.077499,0.017069 0.029867,-0.00594 0.078056,-0.019895 0.078056,-0.019895 0,0 -0.042052,0.022148 -0.077264,0.024998 -0.035213,0.00285 -0.056642,0.0025 -0.07871,-0.00901 -0.022068,-0.011514 -0.064571,-0.023093 -0.064571,-0.023093 z"
       id="path2201" />
    <path
       style="fill:#000000;stroke:none;stroke-width:0.264583px;stroke-linecap:butt;stroke-linejoin:miter;stroke-opacity:1"
       d="m 1.8642434,2.4327165 c 0,0 -0.013912,-0.05376 -0.00991,-0.070191 0.00401,-0.016431 0.016189,-0.054502 0.016189,-0.054502 0,0 -0.018192,0.03149 -0.040655,0.049415 -0.022463,0.017925 -0.0751,0.046638 -0.096191,0.072936 -0.02109,0.026299 -0.073534,0.064063 -0.073534,0.064063 0,0 0.039912,-0.018232 0.066606,-0.048237 0.026694,-0.030005 0.071685,-0.047139 0.090272,-0.065896 0.018587,-0.018757 0.030844,-0.043941 0.030303,-0.026048 -5.398e-4,0.017893 0.016916,0.078459 0.016916,0.07846 z"
       id="path2269" />
    <path
       style="fill:#000000;stroke:none;stroke-width:0.264583px;stroke-linecap:butt;stroke-linejoin:miter;stroke-opacity:1"
       d="m 2.3272965,2.4606379 c 0,0 0.024167,-0.00298 0.041115,-0.014154 0.016948,-0.011175 0.033687,-0.024304 0.027817,-0.050401 -0.00587,-0.026097 -0.012572,-0.040211 -0.012572,-0.040211 0,0 0.021454,0.036569 0.00706,0.059153 -0.014397,0.022584 -0.038103,0.025354 -0.048011,0.035132 -0.00991,0.00978 -0.015406,0.010481 -0.015406,0.010481 z"
       id="path2337" />
    <path
       style="fill:#000000;stroke:none;stroke-width:0.264583px;stroke-linecap:butt;stroke-linejoin:miter;stroke-opacity:1"
       d="m 2.4227284,2.3506075 c 0,0 0.090119,0.083344 0.1378792,0.1113546 0.04776,0.02801 0.083756,0.06592 0.098355,0.08181 0.0146,0.015891 0.038628,0.053501 0.02663,0.082343 -0.011999,0.028842 -0.030336,0.047785 -0.030336,0.047785 0,0 0.027195,-0.025225 0.023479,-0.059226 -0.00371,-0.034002 -0.023269,-0.053186 -0.060904,-0.089021 -0.037635,-0.035834 -0.110531,-0.081939 -0.1347705,-0.1096106 -0.024239,-0.027671 -0.060332,-0.065435 -0.060333,-0.065435 z"
       id="path2405" />
    <path
       style="fill:#000000;stroke:none;stroke-width:0.264583px;stroke-linecap:butt;stroke-linejoin:miter;stroke-opacity:1"
       d="m 1.7198482,2.7209337 c 0,0 0.059404,0.028939 0.094293,0.031006 0.03489,0.00206 0.066283,-0.00411 0.1228607,0 0.056578,0.00411 0.1038777,0.010893 0.1440965,0.014065 0.040219,0.00317 0.098371,-0.011602 0.1338581,-0.011602 0.035487,0 0.057078,-0.00127 0.097806,-0.00333 0.040728,-0.00206 0.029981,-0.00792 0.079493,-0.00792 0.049513,0 0.032476,0.00486 0.077127,-0.0161 0.044652,-0.02096 0.082569,-0.035955 0.082569,-0.035955 0,0 -0.024845,-0.00828 -0.062803,0.011531 -0.037958,0.019807 -0.02436,0.019177 -0.078588,0.021762 -0.054228,0.00259 -0.058968,0.018378 -0.094536,0.018497 -0.035568,1.212e-4 -0.042076,-0.00754 -0.076941,-0.00169 -0.034865,0.00584 -0.023497,0.022085 -0.09049,0.018071 -0.066994,-0.00401 -0.094956,-0.011224 -0.1222229,-0.012031 -0.027267,-8.202e-4 -0.045184,-2.262e-4 -0.1101434,-2.262e-4 -0.064959,0 -0.07355,0.00193 -0.1164819,-0.00585 -0.042932,-0.00779 -0.079897,-0.020219 -0.079897,-0.020219 z"
       id="path2473" />
    <path
       style="fill:#000000;stroke:none;stroke-width:0.264583px;stroke-linecap:butt;stroke-linejoin:miter;stroke-opacity:1"
       d="m 1.6248362,2.5130895 c 0,0 -0.066453,0.046105 -0.063611,0.089659 0.00284,0.043554 0.031789,0.134181 0.031789,0.134181 0,0 -0.046372,-0.088302 -0.04445,-0.1207209 0.00192,-0.032419 0.00373,-0.048899 0.025725,-0.067793 0.021995,-0.018894 0.050546,-0.035326 0.050546,-0.035326 z"
       id="path2541" />
    <path
       style="fill:#000000;stroke:none;stroke-width:0.264583px;stroke-linecap:butt;stroke-linejoin:miter;stroke-opacity:1"
       d="m 1.6552284,2.8232531 c 0,0 0.024029,0.025209 0.030465,0.038927 0.00644,0.013719 0.00116,0.050255 0.022681,0.060397 0.021518,0.010142 0.047082,0.029125 0.047082,0.029125 0,0 -0.041091,-0.016899 -0.051095,-0.043158 -0.010004,-0.026257 -0.049133,-0.08529 -0.049133,-0.08529 z"
       id="path2609" />
    <path
       style="fill:#000000;stroke:none;stroke-width:0.264583px;stroke-linecap:butt;stroke-linejoin:miter;stroke-opacity:1"
       d="m 1.519497,3.1674665 c 0,0 -0.096175,-0.1581783 -0.116385,-0.2025232 C 1.3829017,2.9205986 1.3094808,2.8121345 1.2939375,2.7190443 1.2783942,2.625954 1.259613,2.4520225 1.2488902,2.3621458 1.2381673,2.2722692 1.226532,2.1732685 1.2172222,2.1366186 c -0.00931,-0.03665 -0.012483,-0.064256 -0.012483,-0.090038 0,-0.025782 0.00518,-0.069125 0.00518,-0.069125 0,0 -0.023303,0.036553 -0.042593,0.045435 -0.01929,0.00888 -0.055439,0.028244 -0.063627,0.057215 -0.00819,0.028971 -0.044636,0.068076 -0.016229,0.081875 0.028406,0.013799 0.041664,0.028269 0.06491,0.023699 0.023246,-0.00457 0.041745,0.00564 0.048875,0.026 0.00713,0.020356 0.021228,0.058362 0.021228,0.058362 0,0 -0.00436,-0.029165 -0.00929,-0.054971 -0.00493,-0.025806 0.00764,-0.05812 -0.017312,-0.05812 -0.02495,0 -0.033436,0.00599 -0.03648,-0.021777 -0.00304,-0.027768 0.017118,0.016561 0.017118,0.016561 0,0 4.127e-4,-0.01778 0.00328,-0.043416 0.00287,-0.025636 0.021938,-0.04126 0.021938,-0.04126 0,0 0.02126,0.1129695 0.023303,0.1469064 0.00204,0.033937 0.00777,0.1094652 0.00898,0.1253476 0.00121,0.015882 0.00736,0.071055 0.00736,0.071055 l 0.00423,0.020081 c 0,0 -0.024239,0.022059 -0.04944,0.016973 -0.0252,-0.00509 -0.084838,-0.00252 -0.091928,-0.036174 -0.00709,-0.033654 -0.041018,-0.092097 -0.044991,-0.1160378 -0.00397,-0.023941 -0.00648,-0.054664 -0.00799,-0.067365 -0.00151,-0.012701 0.0087,-0.1444033 -0.00456,-0.1961766 -0.013258,-0.051773 -0.037893,-0.1534144 -0.038031,-0.1749005 -1.372e-4,-0.021486 0.00783,-0.080971 0.013371,-0.096708 0.00554,-0.015737 0.010658,-0.033573 0.031482,-0.039581 0.020824,-0.00601 0.016972,-0.030982 0.039306,-0.010577 0.022334,0.020404 0.044773,0.034631 0.044773,0.034631 0,0 -0.048673,-0.089481 -0.049068,-0.1165384 -3.969e-4,-0.027057 -0.00224,-0.019968 -0.010828,-0.04491 -0.00858,-0.024942 0.00199,-0.080026 -0.035108,0.00761 -0.037094,0.08764 -0.039331,0.1194695 -0.040962,0.1772744 -0.00163,0.057805 -0.003319,0.1341246 0.012443,0.1854619 0.015761,0.051337 0.032274,0.1184278 0.028293,0.1614969 -0.00398,0.043069 -0.014058,0.1170956 1.534e-4,0.165954 0.014211,0.048859 0.03061,0.1503138 0.060082,0.1581138 0.029472,0.0078 0.070571,0.029577 0.092985,0.024038 0.022415,-0.00554 0.050078,-0.018345 0.050078,-0.018345 0,0 0.017917,0.1089 0.02453,0.1673751 0.00661,0.058475 0.030594,0.1843718 0.050272,0.2141906 0.019677,0.029819 0.1088354,0.2007389 0.1236843,0.227433 0.014849,0.026694 0.075343,0.1137769 0.075343,0.1137769 z"
       id="path2677" />
    <path
       style="fill:#000000;stroke:none;stroke-width:0.264583px;stroke-linecap:butt;stroke-linejoin:miter;stroke-opacity:1"
       d="m 2.5399854,3.3151966 c 0,0 0.094051,-0.095763 0.1205677,-0.1305558 0.026516,-0.034793 0.1080117,-0.1392679 0.1356344,-0.181352 0.027623,-0.042084 0.1002038,-0.2050182 0.1065181,-0.2311471 0.00631,-0.026128 0.024474,-0.1670117 0.03036,-0.1950542 0.00589,-0.028043 0.016738,-0.062965 0.016738,-0.062965 0,0 0.012322,0.019007 0.037328,0.017037 0.025006,-0.00197 0.091903,-0.045362 0.102416,-0.058701 0.010512,-0.013339 0.022228,-0.07464 0.02382,-0.1142211 0.00159,-0.039581 0.0265,-0.1023194 0.0205,-0.1588889 -0.006,-0.05657 -0.00319,-0.068713 0.018563,-0.1212055 0.021754,-0.052492 0.052662,-0.175393 0.043271,-0.2149739 -0.00939,-0.039581 -0.04118,-0.1001796 -0.04118,-0.1001796 0,0 -0.034995,-0.00352 -0.048988,-0.00365 -0.013994,-1.292e-4 -0.037748,0.015349 -0.053743,0.034599 -0.015994,0.019249 -0.050602,0.074051 -0.050602,0.074051 0,0 0.034381,-0.048875 0.059258,-0.070514 0.024879,-0.02164 0.068278,-0.049068 0.0829,-0.03384 0.014623,0.015228 0.024773,0.031482 0.030764,0.073736 0.00599,0.042254 0.014946,0.1002442 -0.00468,0.1592845 -0.01963,0.05904 -0.047712,0.096667 -0.049884,0.145558 -0.00217,0.048891 0.00357,0.078904 -0.00217,0.1121217 -0.00574,0.033218 -0.018142,0.08353 -0.0185,0.1066796 -3.439e-4,0.023149 0.00711,0.086736 -0.031103,0.1185409 -0.038216,0.031805 -0.066356,0.044199 -0.088504,0.04009 -0.022148,-0.00411 -0.030933,-0.031975 -0.030933,-0.031975 0,0 0.021995,-0.078023 0.028987,-0.1183068 0.00699,-0.040283 0.013928,-0.1447424 0.015518,-0.1703545 0.00159,-0.025612 0.00648,-0.086905 0.00648,-0.086905 0,0 0.05468,0.017384 0.050643,0.04189 -0.00404,0.024506 -0.016335,0.055609 -0.03011,0.070684 -0.013774,0.015075 -0.05359,0.053106 -0.022148,0.03845 0.031442,-0.014655 0.05443,-0.00347 0.061535,-0.042875 0.00711,-0.039403 0.03858,-0.059339 0.022188,-0.1000585 -0.016391,-0.040719 -0.039468,-0.065435 -0.054527,-0.068415 -0.01506,-0.00298 -0.029011,-0.019936 -0.029011,-0.019936 l -0.0013,-0.011692 c 0,0 0.043771,-0.079485 0.055576,-0.092089 0.011806,-0.012604 0.066784,-0.070078 0.066784,-0.070078 0,0 0.00519,0.046436 -0.00119,0.070248 -0.00639,0.023811 -0.00858,0.111508 -0.00661,0.1322594 0.00196,0.020751 -0.00296,0.1334382 -0.010173,0.1489411 -0.00722,0.015503 -0.048842,0.093413 -0.048842,0.093413 0,0 0.042762,-6.933e-4 0.034938,-0.018289 -0.00782,-0.017594 0.01497,-0.061713 0.01497,-0.061713 0,0 0.010649,-0.030271 0.010173,-0.056376 -4.762e-4,-0.026105 -1.291e-4,-0.076457 0.00573,-0.1167807 0.00586,-0.040324 0.017142,-0.045871 0.02377,-0.084547 0.00663,-0.038677 0.018457,-0.052662 0.014899,-0.083409 -0.00356,-0.030747 -0.00151,-0.059428 -0.00151,-0.059428 0,0 -0.016674,0.00778 -0.032346,0.023916 -0.015671,0.016133 -0.073324,0.047744 -0.08919,0.085791 -0.015867,0.038047 -0.035277,0.074438 -0.035277,0.074438 0,0 -0.00451,-0.021325 -0.00451,-0.043214 0,-0.02189 -0.00453,-0.09309 -0.0066,-0.1388158 -0.00206,-0.045726 -0.00531,-0.049488 -0.00414,-0.099768 0.00119,-0.05028 -0.00751,-0.088609 -0.00751,-0.088609 0,0 -8.202e-4,0.062835 -8.202e-4,0.1107491 0,0.047914 -0.00338,0.1077696 0.00464,0.1512585 0.00802,0.043489 0.010086,0.1813036 0.010086,0.2228142 0,0.041511 -0.00633,0.2340943 -0.022738,0.2863844 -0.016407,0.05229 -0.028495,0.1002845 -0.040485,0.1565796 -0.011991,0.056295 -0.016891,0.1408909 -0.036537,0.2097659 -0.019645,0.068875 -0.090668,0.2094349 -0.1228688,0.2569125 -0.032201,0.047478 -0.1001876,0.1431679 -0.1350047,0.1840005 -0.034817,0.040832 -0.091823,0.1006883 -0.091823,0.1006883 z"
       id="path2745" />
    <path
       style="fill:#000000;stroke:none;stroke-width:0.264583px;stroke-linecap:butt;stroke-linejoin:miter;stroke-opacity:1"
       d="m 1.1131588,1.8236048 c 0,0 -0.014259,-0.028947 -0.035301,-0.041955 -0.021042,-0.013008 -0.03141,-0.030602 -0.036763,-0.01862 -0.00535,0.011982 -0.017078,0.071354 -0.01174,0.099647 0.00534,0.028293 0.011999,0.077943 0.019031,0.1035386 0.00703,0.025596 0.014558,0.087688 0.014558,0.087688 0,0 0.00133,-0.051886 0.0143,-0.080526 0.012968,-0.02864 0.00623,-0.047009 0.012411,-0.080179 0.00618,-0.03317 0.023505,-0.069594 0.023505,-0.069593 z"
       id="path2813" />
    <path
       style="fill:#000000;stroke:none;stroke-width:0.264583px;stroke-linecap:butt;stroke-linejoin:miter;stroke-opacity:1"
       d="m 1.3456623,2.8619135 c 0,0 0.029149,0.2903892 0.013646,0.343858 -0.015503,0.053469 -0.020759,0.163548 -0.078564,0.2395445 C 1.2229393,3.521313 1.0606996,3.6482512 1.0204243,3.6709323 0.980149,3.6936123 0.74985779,3.8471649 0.70702288,3.8725914 0.66418798,3.8980174 0.22956495,4.0463694 0.16090797,4.084715 0.09225098,4.123061 -0.00188894,4.172476 -0.00188894,4.172476 L 0.00155845,4.156797 c 0,0 0.18878046,-0.1029089 0.26984788,-0.1330992 C 0.35247371,3.9935075 0.62210357,3.9166712 0.67961782,3.8771226 0.73713207,3.8375738 1.115557,3.6123213 1.1898418,3.5310762 1.2641267,3.4498311 1.3412619,3.373891 1.3508785,3.2216473 1.3604951,3.0694037 1.3293843,2.8334361 1.3293843,2.8334361 Z"
       id="path2881" />
    <path
       style="fill:#000000;stroke:none;stroke-width:0.264583px;stroke-linecap:butt;stroke-linejoin:miter;stroke-opacity:1"
       d="m 2.7614996,3.0391555 c 0,0 -0.011959,0.072307 -0.027534,0.1568704 -0.015576,0.084563 -0.019532,0.3677422 -0.019201,0.3860956 3.44e-4,0.018354 0.017005,0.053735 0.032491,0.077458 0.015486,0.023723 0.068689,0.1112739 0.068689,0.1112739 0,0 0.061075,0.1550535 0.039072,0.2357493 -0.022003,0.080696 -0.049634,0.2289591 -0.049634,0.2289591 l 0.4037626,0.00298 c 0,0 0.00858,-0.076118 -0.00676,-0.134488 -0.015341,-0.05837 -0.086171,-0.1661962 -0.086171,-0.1661962 0,0 0.173011,0.063344 0.2028058,0.086098 0.029795,0.022754 0.2544418,0.1274146 0.3020245,0.1472938 0.047583,0.019878 0.14991,0.065815 0.14991,0.065815 l 0.016174,-9.525e-4 c 0,0 -0.1260097,-0.046549 -0.168021,-0.072065 C 3.5771007,4.1385299 3.4557096,4.0900037 3.3950383,4.0574475 3.3343667,4.0248914 3.1459254,3.9488303 3.0986981,3.9201336 3.0514708,3.8914371 2.8575952,3.8016008 2.831539,3.7663961 2.8054829,3.7311917 2.724803,3.6118757 2.7231072,3.5886374 c -0.00169,-0.023238 -0.00375,-0.1498698 0.00451,-0.2367103 0.00825,-0.086841 0.042875,-0.3204263 0.042875,-0.3204263 z"
       id="path2949" />
    <path
       style="fill:#502d16;stroke:none;stroke-width:0.264583px;stroke-linecap:butt;stroke-linejoin:miter;stroke-opacity:1"
       d="m 1.6618414,3.2704317 c 0,0 0.178106,0.124613 0.2246471,0.1583399 0.046541,0.033727 0.2014493,0.067034 0.2411917,0.067034 0.039742,0 0.1809402,-0.052605 0.1982195,-0.060421 0.017279,-0.00782 0.1190334,-0.068625 0.1190334,-0.068625 0,0 -0.1565715,0.082101 -0.2268272,0.099744 -0.070256,0.017643 -0.1831284,0.016189 -0.230921,-2.503e-4 C 1.9393923,3.4498137 1.8286432,3.3864695 1.786858,3.3527346 1.7450727,3.3189994 1.6618414,3.2704317 1.6618414,3.2704317 Z"
       id="path3017" />
    <path
       style="fill:none;stroke:#000000;stroke-width:0.00007;stroke-linecap:butt;stroke-linejoin:miter;stroke-opacity:1;stroke-miterlimit:4;stroke-dasharray:none;vector-effect:non-scaling-stroke;-inkscape-stroke:hairline"
       d="m 1.8852693,0.73826242 c -0.076915,-0.031959 -0.167501,-0.11736025 -0.2583822,-0.094471 -0.021215,0.005343 -0.041181,0.0178181 -0.061947,0.0247401 -0.04981,0.0166033 -0.095487,0.0362391 -0.1361674,0.0701346 -0.03331,0.0277547 -0.067777,0.063067 -0.1011728,0.0853307"
       id="path4240" />
    <path
       style="fill:none;stroke:#000000;stroke-width:0.00070004;stroke-linecap:butt;stroke-linejoin:miter;stroke-opacity:1;vector-effect:non-scaling-stroke;-inkscape-stroke:hairline;stroke-miterlimit:4;stroke-dasharray:none"
       d="M 1.4421439,0.89485815 C 1.4159601,0.93556692 1.3000318,1.0019623 1.2817208,1.0383571"
       id="path4242" />
    <path
       style="fill:none;stroke:#000000;stroke-width:0.00070004;stroke-linecap:butt;stroke-linejoin:miter;stroke-opacity:1;vector-effect:non-scaling-stroke;-inkscape-stroke:hairline;stroke-miterlimit:4;stroke-dasharray:none"
       d="M 1.3691994,0.92683294 C 1.3205031,0.98566448 1.2552571,1.0342943 1.2125067,1.1000297"
       id="path4244" />
    <path
       style="fill:none;stroke:#000000;stroke-width:0.00070004;stroke-linecap:butt;stroke-linejoin:miter;stroke-opacity:1;vector-effect:non-scaling-stroke;-inkscape-stroke:hairline;stroke-miterlimit:4;stroke-dasharray:none"
       d="M 1.3182012,1.0705903 C 1.2562201,1.1348447 1.1990913,1.2065795 1.1291139,1.2606465"
       id="path4246" />
    <path
       style="fill:none;stroke:#000000;stroke-width:0.00070004;stroke-linecap:butt;stroke-linejoin:miter;stroke-opacity:1;vector-effect:non-scaling-stroke;-inkscape-stroke:hairline;stroke-miterlimit:4;stroke-dasharray:none"
       d="M 1.2642155,1.1448429 C 1.1977161,1.2145756 1.1008779,1.2572745 1.0606749,1.346704"
       id="path4248" />
    <path
       style="fill:none;stroke:#000000;stroke-width:0.00070004;stroke-linecap:butt;stroke-linejoin:miter;stroke-opacity:1;vector-effect:non-scaling-stroke;-inkscape-stroke:hairline;stroke-miterlimit:4;stroke-dasharray:none"
       d="M 1.2213563,1.2695446 C 1.192074,1.3193969 1.1553843,1.405197 1.0987863,1.4389948"
       id="path4250" />
    <path
       style="fill:none;stroke:#000000;stroke-width:0.00070004;stroke-linecap:butt;stroke-linejoin:miter;stroke-opacity:1;vector-effect:non-scaling-stroke;-inkscape-stroke:hairline;stroke-miterlimit:4;stroke-dasharray:none"
       d="M 1.2139278,1.3908389 C 1.1832003,1.4451245 1.1468584,1.5035471 1.0944422,1.539667"
       id="path4252" />
    <path
       style="fill:none;stroke:#000000;stroke-width:0.00070004;stroke-linecap:butt;stroke-linejoin:miter;stroke-opacity:1;vector-effect:non-scaling-stroke;-inkscape-stroke:hairline;stroke-miterlimit:4;stroke-dasharray:none"
       d="m 1.2470653,1.4784789 c -0.012247,0.00966 -0.072796,0.2088278 -0.082682,0.218672 -0.00297,0.00295 -0.00684,-0.0035 -0.00772,-0.00396"
       id="path4254" />
    <path
       style="fill:none;stroke:#000000;stroke-width:0.00070004;stroke-linecap:butt;stroke-linejoin:miter;stroke-opacity:1;vector-effect:non-scaling-stroke;-inkscape-stroke:hairline;stroke-miterlimit:4;stroke-dasharray:none"
       d="M 1.5576568,0.78131534 C 1.532099,0.78696205 1.3689725,0.96289526 1.3577336,0.94343401"
       id="path4256" />
    <path
       style="fill:none;stroke:#000000;stroke-width:0.00070004;stroke-linecap:butt;stroke-linejoin:miter;stroke-opacity:1;vector-effect:non-scaling-stroke;-inkscape-stroke:hairline;stroke-miterlimit:4;stroke-dasharray:none"
       d="M 1.7563043,0.7239868 C 1.6892938,0.68490319 1.6406545,0.69425348 1.5827199,0.7161546"
       id="path4260" />
    <path
       style="fill:none;stroke:#000000;stroke-width:0.00070004;stroke-linecap:butt;stroke-linejoin:miter;stroke-opacity:1;vector-effect:non-scaling-stroke;-inkscape-stroke:hairline;stroke-miterlimit:4;stroke-dasharray:none"
       d="M 1.7813835,0.68072393 C 1.7262695,0.64981425 1.6681571,0.61136199 1.6031805,0.62079544"
       id="path4262" />
    <path
       style="fill:none;stroke:#000000;stroke-width:0.00063004;stroke-linecap:butt;stroke-linejoin:miter;stroke-opacity:1;stroke-miterlimit:4;stroke-dasharray:none;vector-effect:non-scaling-stroke;-inkscape-stroke:hairline"
       d="m 2.4052149,0.76329319 c 0.035481,-0.006074 0.1149211,-0.009097 0.1495548,0.00822 0.02383,0.011915 0.041747,0.0285574 0.069812,0.0289388 0.0094,1.2779e-4 0.014585,-0.0121372 0.022996,-0.0163428"
       id="path4264" />
    <path
       style="fill:none;stroke:#000000;stroke-width:0.00063004;stroke-linecap:butt;stroke-linejoin:miter;stroke-opacity:1;stroke-miterlimit:4;stroke-dasharray:none;vector-effect:non-scaling-stroke;-inkscape-stroke:hairline"
       d="m 2.6258894,0.85674678 c 0.1018523,0.0294102 0.1817019,0.0744248 0.2557014,0.14842442"
       id="path4266" />
    <path
       style="fill:none;stroke:#000000;stroke-width:0.00063004;stroke-linecap:butt;stroke-linejoin:miter;stroke-opacity:1;stroke-miterlimit:4;stroke-dasharray:none;vector-effect:non-scaling-stroke;-inkscape-stroke:hairline"
       d="m 2.7613948,0.93519806 c 0.037984,0.044417 0.064447,0.10146574 0.1033529,0.14469404 0.00743,0.00826 0.020132,0.00976 0.028939,0.016536 0.038465,0.029589 0.059881,0.076305 0.090853,0.1072771 0.00965,0.00965 0.021476,0.00878 0.032815,0.016343"
       id="path4268" />
    <path
       style="fill:none;stroke:#000000;stroke-width:0.00063004;stroke-linecap:butt;stroke-linejoin:miter;stroke-opacity:1;stroke-miterlimit:4;stroke-dasharray:none;vector-effect:non-scaling-stroke;-inkscape-stroke:hairline"
       d="m 2.8830764,1.0953304 c 0.042339,0.052195 0.2050722,0.2200425 0.187424,0.2962998"
       id="path4270" />
    <path
       style="fill:none;stroke:#000000;stroke-width:0.00070004;stroke-linecap:butt;stroke-linejoin:miter;stroke-opacity:1;vector-effect:non-scaling-stroke;-inkscape-stroke:hairline;stroke-miterlimit:4;stroke-dasharray:none"
       d="m 2.9857835,1.3103044 c 0.038762,0.066008 0.084237,0.1306045 0.1117017,0.2027008 0.013494,0.035423 0.013809,0.071748 0.024805,0.1074869 0.00259,0.00839 0.026562,0.1121368 -0.00449,0.081148"
       id="path4272" />
    <path
       style="fill:none;stroke:#000000;stroke-width:0.00070004;stroke-linecap:butt;stroke-linejoin:miter;stroke-opacity:1;vector-effect:non-scaling-stroke;-inkscape-stroke:hairline;stroke-miterlimit:4;stroke-dasharray:none"
       d="m 2.9897239,1.3816017 c 0.048604,0.097289 0.041696,0.2140784 0.041696,0.3204746"
       id="path4274" />
    <path
       style="fill:#6c5d53;stroke:none;stroke-width:0.264583px;stroke-linecap:butt;stroke-linejoin:miter;stroke-opacity:1"
       d="M 1.9214428,1.6485912 C 1.8185259,1.6291641 1.8407145,1.6094625 1.737184,1.6094625 c -0.1035305,0 -0.2165243,-0.00383 -0.2384867,0 -0.021963,0.00383 -0.1097963,0.00938 -0.1571933,0.069602 -0.047397,0.060219 -0.079097,0.1184844 -0.079097,0.1184844 0,0 0.023739,-0.1524131 0.1220209,-0.1962412 0.098282,-0.043828 0.20543,-0.084636 0.2694119,-0.077935 0.063982,0.0067 0.1439673,0.022301 0.1814004,0.03711 0.037433,0.014809 0.086203,0.088108 0.086203,0.088109 z"
       id="path4469" />
    <path
       style="fill:#6c5d53;stroke:none;stroke-width:0.264583px;stroke-linecap:butt;stroke-linejoin:miter;stroke-opacity:1"
       d="m 2.2718897,1.6202176 v 0.057603 c 0,0 0.065904,0.00751 0.084814,0 0.01891,-0.00751 0.086849,-0.01405 0.1583075,-0.028099 0.071459,-0.01405 0.1347139,-0.00883 0.1725509,-0.00165 0.037837,0.00719 0.079323,0.032475 0.1197276,0.035221 0.040404,0.00275 0.095569,0.042213 0.095569,0.042213 0,0 -0.073478,-0.091451 -0.148376,-0.1110882 -0.074899,-0.019636 -0.1524456,-0.072055 -0.2011345,-0.057295 -0.048689,0.01476 -0.1414804,0.024191 -0.1735682,0.026953 -0.032088,0.00276 -0.1078907,0.036141 -0.1078907,0.036141 z"
       id="path4537" />
    <path
       style="fill:#6c5d53;stroke:none;stroke-width:0.264583px;stroke-linecap:butt;stroke-linejoin:miter;stroke-opacity:1"
       d="m 2.0288329,0.74451204 c 0,0 -0.059056,-0.031345 -0.1500878,-0.10285225 -0.091031,-0.0715073 -0.1197278,-0.0923878 -0.2121317,-0.0800339 -0.092404,0.0123539 -0.2250186,0.024514 -0.1484729,0.0123539 0.076546,-0.0121601 0.1489089,-0.0415026 0.2809422,-0.029068 0.1320332,0.0124346 0.1528007,0.025596 0.1963058,0.0434082 0.043505,0.0178122 0.1044026,0.10028457 0.087317,0.0889642 C 2.06562,0.66596386 2.0852409,0.65307707 1.9591181,0.60412978 1.8329953,0.5551825 1.7176438,0.55508561 1.8093372,0.5873188 1.9010302,0.619552 2.1200579,0.71000188 2.0138467,0.6731663 1.9076355,0.6363307 1.7810928,0.5840245 1.8464958,0.6247519 1.9118988,0.6654794 2.0288329,0.74451203 2.0288329,0.74451204 Z"
       id="path4772" />
    <path
       style="fill:#6c5d53;stroke:none;stroke-width:0.264583px;stroke-linecap:butt;stroke-linejoin:miter;stroke-opacity:1"
       d="m 3.1755974,2.4163415 c 0,0 0.1355376,-0.021365 0.1606169,0.056909 0.02508,0.078274 0.089158,0.080583 0.065968,0.1791395 C 3.3789913,2.750947 3.3643293,2.92051 3.3500213,2.745343 3.3357129,2.5701758 3.3860496,2.5681087 3.3123624,2.5122013 3.2386751,2.4562938 3.1964619,2.3750811 3.2336689,2.4872836 3.270876,2.5994861 3.2058927,2.6158772 3.3161089,2.7143207 3.426325,2.8127642 3.6173018,3.0548844 3.474045,2.9187978 3.3307882,2.7827113 3.3746164,2.7891385 3.2737665,2.7209903 3.1729166,2.6528418 3.1931514,2.7206199 3.1617255,2.6290224 3.1302999,2.5374258 3.0805773,2.3893244 3.1343856,2.4975542 3.1881937,2.6057841 3.2871378,2.7850528 3.2445854,2.6782926 3.2020332,2.5715323 3.1929898,2.6049605 3.1979475,2.5224558 3.2029058,2.4399512 3.1755982,2.4163415 3.1755974,2.4163415 Z"
       id="path5213" />
    <path
       style="fill:#c8beb7;stroke:none;stroke-width:0.264583px;stroke-linecap:butt;stroke-linejoin:miter;stroke-opacity:1"
       d="m 1.7653638,2.1337631 c 0,0 0.1536996,-0.076325 0.1761721,-0.1387977 0.022473,-0.062473 -0.00389,-0.081075 -0.00508,-0.1169533 -0.00119,-0.035878 -0.012481,-0.063238 -0.031733,-0.109588 C 1.8854709,1.7220741 1.781455,1.5965455 1.781455,1.5965455 c 0,0 0.1125455,0.037409 0.1400538,0.054423 0.027508,0.017014 0.075925,0.092402 0.1051232,0.1667286 0.029198,0.074326 0.020463,0.2482031 0.023352,0.3121837 0.00289,0.063981 -0.011682,0.1420522 -0.00898,0.1621267 0.00271,0.020074 -0.03106,0.055017 -0.061503,0.061982 -0.030443,0.00697 -0.080401,-0.0047 -0.1024055,0.00607 -0.022004,0.01078 -0.021947,0.035513 -0.021947,0.035513 0,0 -0.00982,-0.045687 0.00724,-0.080196 0.01706,-0.034508 0.047309,-0.067806 0.067429,-0.088737 0.02012,-0.020931 0.015279,-0.015347 0.02567,0.00765 0.010391,0.022998 0.01521,0.05907 0.018133,-0.042844 0.00292,-0.1019145 -0.00151,-0.1442218 0.013908,-0.1873399 0.015416,-0.043118 -0.027189,0.050095 -0.06583,0.070889 -0.038642,0.020794 -0.1563373,0.058762 -0.1563374,0.058762 z"
       id="path5966" />
    <path
       style="fill:#c8beb7;stroke:none;stroke-width:0.264583px;stroke-linecap:butt;stroke-linejoin:miter;stroke-opacity:1"
       d="m 1.6253442,2.6701128 c 0,0 0.1313412,0.08997 0.1631316,0.097838 0.03179,0.00787 0.018145,0.051934 0.044408,0.084055 0.026264,0.032122 0.1114721,0.097278 0.1114721,0.097278 0,0 -0.1729634,-0.094447 -0.207974,-0.1440048 C 1.7013718,2.7557211 1.6253442,2.6701128 1.6253442,2.6701128 Z"
       id="path6067" />
    <path
       style="fill:#c8beb7;stroke:none;stroke-width:0.264583px;stroke-linecap:butt;stroke-linejoin:miter;stroke-opacity:1"
       d="m 2.2902375,2.0008119 c -0.00875,-0.1275387 -0.00818,-0.1698118 0.045527,-0.1967035 0.053704,-0.026892 0.1087087,-0.057403 0.1087087,-0.057403 0,0 -0.1790268,-0.027645 -0.1957328,0.026983 -0.016706,0.054628 -0.026321,0.091854 -0.00514,0.1281782 0.021182,0.036324 0.046635,0.098945 0.046635,0.098945 z"
       id="path6234" />
    <path
       style="fill:#c8beb7;stroke:none;stroke-width:0.264583px;stroke-linecap:butt;stroke-linejoin:miter;stroke-opacity:1"
       d="m 1.1277619,3.5961357 c 0,0 0.1305989,-0.1288863 0.1879223,-0.1061966 0.057323,0.022691 -0.037352,0.090073 0.1256887,0.06301 0.1630403,-0.027063 -0.00421,-0.014526 0.2337238,-0.015325 0.2379375,-7.938e-4 0.4243752,-0.048645 0.4243752,-0.048645 0,0 -0.1553324,-0.013041 -0.2110799,-0.052482 C 1.8326445,3.3970571 1.6444482,3.2836665 1.6025062,3.2413363 1.5605643,3.1990061 1.4509192,3.0779762 1.4139559,3.0129908 c -0.036963,-0.064985 -0.0717,-0.1372219 -0.0717,-0.1372219 0,0 0.014514,0.081634 0.020212,0.2013852 0.0057,0.119751 -0.013646,0.2618145 -0.068434,0.3423867 -0.054788,0.080573 -0.1662719,0.1765949 -0.166272,0.1765949 z"
       id="path7366" />
  </g>
</svg>
